<svg width="198" height="31" viewBox="0 0 198 31" fill="none" xmlns="http://www.w3.org/2000/svg">
<path d="M0.88 2.08H19.76V5.48H4.52V14.32H18.36V17.72H4.52V30H0.88V2.08ZM23.3341 19.8C23.3341 16.6267 24.2674 14.0667 26.1341 12.12C28.0007 10.1733 30.4674 9.2 33.5341 9.2C36.6274 9.2 39.1074 10.1733 40.9741 12.12C42.8674 14.0667 43.8141 16.6267 43.8141 19.8C43.8141 22.9733 42.8674 25.5333 40.9741 27.48C39.1074 29.4267 36.6274 30.4 33.5341 30.4C30.4674 30.4 28.0007 29.4267 26.1341 27.48C24.2674 25.5333 23.3341 22.9733 23.3341 19.8ZM28.9341 25.28C30.2674 26.48 31.8141 27.08 33.5741 27.08C35.3341 27.08 36.8674 26.48 38.1741 25.28C39.5074 24.0533 40.1741 22.2267 40.1741 19.8C40.1741 17.3467 39.5074 15.52 38.1741 14.32C36.8674 13.12 35.3341 12.52 33.5741 12.52C31.8141 12.52 30.2674 13.12 28.9341 14.32C27.6274 15.52 26.9741 17.3467 26.9741 19.8C26.9741 22.2267 27.6274 24.0533 28.9341 25.28ZM47.67 19.8C47.67 16.6267 48.6033 14.0667 50.47 12.12C52.3367 10.1733 54.8033 9.2 57.87 9.2C60.9633 9.2 63.4433 10.1733 65.31 12.12C67.2033 14.0667 68.15 16.6267 68.15 19.8C68.15 22.9733 67.2033 25.5333 65.31 27.48C63.4433 29.4267 60.9633 30.4 57.87 30.4C54.8033 30.4 52.3367 29.4267 50.47 27.48C48.6033 25.5333 47.67 22.9733 47.67 19.8ZM53.27 25.28C54.6033 26.48 56.15 27.08 57.91 27.08C59.67 27.08 61.2033 26.48 62.51 25.28C63.8433 24.0533 64.51 22.2267 64.51 19.8C64.51 17.3467 63.8433 15.52 62.51 14.32C61.2033 13.12 59.67 12.52 57.91 12.52C56.15 12.52 54.6033 13.12 53.27 14.32C51.9633 15.52 51.31 17.3467 51.31 19.8C51.31 22.2267 51.9633 24.0533 53.27 25.28ZM74.8859 12.08C76.8326 10.16 79.0993 9.2 81.6859 9.2C84.2726 9.2 86.5126 10.1867 88.4059 12.16H88.5259V0.799999H92.1659V30H88.9659L88.5259 27.44H88.4059C86.5126 29.4133 84.2726 30.4 81.6859 30.4C79.0993 30.4 76.8326 29.44 74.8859 27.52C72.9659 25.6 72.0059 23.0267 72.0059 19.8C72.0059 16.5733 72.9659 14 74.8859 12.08ZM82.2059 27C84.6059 27 86.7126 26 88.5259 24V15.6C86.7126 13.6 84.6059 12.6 82.2059 12.6C80.2326 12.6 78.6459 13.2267 77.4459 14.48C76.2459 15.7333 75.6459 17.5067 75.6459 19.8C75.6459 22.0933 76.2459 23.8667 77.4459 25.12C78.6459 26.3733 80.2326 27 82.2059 27Z" fill="black"/>
<path d="M99.2003 2.08H118.08V5.48H102.84V14.32H116.68V17.72H102.84V30H99.2003V2.08ZM123.054 30V9.6H126.694V30H123.054ZM126.854 1.36V5.28H122.934V1.36H126.854ZM144.248 9.2C146.461 9.2 148.208 9.94667 149.488 11.44C150.768 12.9333 151.408 14.8 151.408 17.04V30H147.768V17.44C147.768 14.1867 146.301 12.56 143.368 12.56C141.048 12.56 138.861 13.84 136.808 16.4V30H133.168V9.6H136.368L136.808 12.16V12.76H136.888C139.048 10.3867 141.501 9.2 144.248 9.2ZM159.183 12.08C161.129 10.16 163.396 9.2 165.983 9.2C168.569 9.2 170.809 10.1867 172.703 12.16H172.823V0.799999H176.463V30H173.263L172.823 27.44H172.703C170.809 29.4133 168.569 30.4 165.983 30.4C163.396 30.4 161.129 29.44 159.183 27.52C157.263 25.6 156.303 23.0267 156.303 19.8C156.303 16.5733 157.263 14 159.183 12.08ZM166.503 27C168.903 27 171.009 26 172.823 24V15.6C171.009 13.6 168.903 12.6 166.503 12.6C164.529 12.6 162.943 13.2267 161.743 14.48C160.543 15.7333 159.943 17.5067 159.943 19.8C159.943 22.0933 160.543 23.8667 161.743 25.12C162.943 26.3733 164.529 27 166.503 27ZM190.177 12.52C188.471 12.52 187.204 12.7867 186.377 13.32C185.577 13.8267 185.177 14.48 185.177 15.28C185.177 16.0533 185.591 16.6533 186.417 17.08C187.244 17.5067 188.244 17.8533 189.417 18.12C190.617 18.36 191.804 18.6667 192.977 19.04C194.151 19.4133 195.151 20.0533 195.977 20.96C196.804 21.8667 197.217 23.1067 197.217 24.68C197.217 26.2533 196.537 27.6 195.177 28.72C193.844 29.84 191.844 30.4 189.177 30.4C186.537 30.4 184.124 29.8 181.937 28.6V25.12H182.137C184.297 26.4 186.671 27.04 189.257 27.04C192.217 27.04 193.697 26.0933 193.697 24.2C193.697 23.5867 193.284 23.0933 192.457 22.72C191.631 22.32 190.631 21.9867 189.457 21.72C188.284 21.4533 187.111 21.1333 185.937 20.76C184.764 20.3867 183.764 19.76 182.937 18.88C182.111 18 181.697 16.88 181.697 15.52C181.697 13.6533 182.364 12.1333 183.697 10.96C185.057 9.78667 186.897 9.2 189.217 9.2C191.537 9.2 193.697 9.57333 195.697 10.32V13.64H195.417C193.631 12.8933 191.884 12.52 190.177 12.52Z" fill="#FE5341"/>
</svg>
